<?xml version="1.0" encoding="utf-8"?>
<!-- Generator: Adobe Illustrator 19.1.0, SVG Export Plug-In . SVG Version: 6.00 Build 0)  -->
<svg version="1.1" id="Layer_1" xmlns="http://www.w3.org/2000/svg" xmlns:xlink="http://www.w3.org/1999/xlink" x="0px" y="0px"
	 viewBox="0 0 120.5 42.5" style="enable-background:new 0 0 120.5 42.5;" xml:space="preserve">
<style type="text/css">
	.st0{clip-path:url(#SVGID_2_);fill:#A99E69;}
	.st1{fill:#A99E69;}
	.st2{clip-path:url(#SVGID_4_);fill:#A99E69;}
	.st3{clip-path:url(#SVGID_6_);fill:#A99E69;}
	.st4{clip-path:url(#SVGID_8_);fill:#A99E69;}
	.st5{clip-path:url(#SVGID_10_);fill:#A99E69;}
	.st6{clip-path:url(#SVGID_12_);fill:#A99E69;}
	.st7{clip-path:url(#SVGID_14_);fill:#A99E69;}
	.st8{clip-path:url(#SVGID_16_);fill:#A99E69;}
	.st9{clip-path:url(#SVGID_18_);fill:#A99E69;}
	.st10{clip-path:url(#SVGID_20_);fill:#A99E69;}
	.st11{clip-path:url(#SVGID_22_);fill:#A99E69;}
	.st12{clip-path:url(#SVGID_24_);fill:url(#SVGID_25_);}
	.st13{clip-path:url(#SVGID_27_);fill:url(#SVGID_28_);}
	.st14{clip-path:url(#SVGID_30_);fill:url(#SVGID_31_);}
</style>
<g>
	<defs>
		<rect id="SVGID_1_" y="0" width="120.5" height="42.5"/>
	</defs>
	<clipPath id="SVGID_2_">
		<use xlink:href="#SVGID_1_"  style="overflow:visible;"/>
	</clipPath>
	<path class="st0" d="M54.1,4h0.6c0.6,0,1-0.1,1.2-0.2c0.2-0.2,0.3-0.4,0.3-0.8c0-0.2-0.1-0.4-0.2-0.6c-0.1-0.2-0.3-0.3-0.4-0.3
		c-0.2-0.1-0.5-0.1-1-0.1h-0.5V4z M52.2,0.2h2c1.1,0,1.8,0.1,2.3,0.3c0.5,0.2,0.8,0.5,1.1,1c0.3,0.4,0.4,1,0.4,1.6
		c0,0.6-0.2,1.2-0.5,1.6c-0.3,0.4-0.8,0.8-1.4,1l2.3,4.3h-2l-2.2-4.1h-0.2v4.1h-1.8V0.2z"/>
</g>
<polygon class="st1" points="60,0.2 65.3,0.2 65.3,2.1 61.8,2.1 61.8,3.8 65.3,3.8 65.3,5.6 61.8,5.6 61.8,8.1 65.3,8.1 65.3,9.9 
	60,9.9 "/>
<g>
	<defs>
		<rect id="SVGID_3_" y="0" width="120.5" height="42.5"/>
	</defs>
	<clipPath id="SVGID_4_">
		<use xlink:href="#SVGID_3_"  style="overflow:visible;"/>
	</clipPath>
	<path class="st2" d="M72.1,1.6l-1.4,1.2c-0.5-0.7-1-1-1.5-1c-0.2,0-0.4,0.1-0.6,0.2c-0.2,0.1-0.2,0.3-0.2,0.4
		c0,0.2,0.1,0.3,0.2,0.5c0.1,0.2,0.6,0.6,1.4,1.2c0.7,0.6,1.1,1,1.3,1.1c0.4,0.4,0.6,0.7,0.8,1.1c0.2,0.3,0.2,0.7,0.2,1.1
		c0,0.8-0.3,1.5-0.8,2c-0.6,0.5-1.3,0.8-2.2,0.8c-0.7,0-1.3-0.2-1.8-0.5c-0.5-0.3-1-0.9-1.3-1.6l1.6-0.9c0.5,0.9,1,1.3,1.6,1.3
		c0.3,0,0.6-0.1,0.8-0.3c0.2-0.2,0.3-0.4,0.3-0.6c0-0.2-0.1-0.4-0.2-0.7c-0.2-0.2-0.5-0.6-1.1-1c-1.1-0.9-1.7-1.5-2.1-2
		c-0.3-0.5-0.5-0.9-0.5-1.4c0-0.7,0.3-1.2,0.8-1.7C67.9,0.2,68.6,0,69.3,0c0.5,0,0.9,0.1,1.4,0.3C71.2,0.6,71.6,1,72.1,1.6"/>
</g>
<rect x="74" y="0.2" class="st1" width="1.8" height="9.7"/>
<g>
	<defs>
		<rect id="SVGID_5_" y="0" width="120.5" height="42.5"/>
	</defs>
	<clipPath id="SVGID_6_">
		<use xlink:href="#SVGID_5_"  style="overflow:visible;"/>
	</clipPath>
	<path class="st3" d="M79.8,2v6.1h0.9c0.8,0,1.5-0.1,1.8-0.3c0.4-0.2,0.7-0.5,0.9-1c0.2-0.5,0.4-1,0.4-1.7c0-1-0.3-1.8-0.9-2.4
		C82.4,2.3,81.5,2,80.4,2H79.8z M77.9,0.2h2.2c1.4,0,2.5,0.2,3.1,0.5c0.7,0.4,1.3,0.9,1.7,1.7c0.4,0.8,0.7,1.7,0.7,2.8
		c0,0.7-0.1,1.4-0.4,2.1c-0.2,0.6-0.6,1.1-1,1.6c-0.4,0.4-0.9,0.7-1.4,0.9c-0.5,0.2-1.4,0.2-2.7,0.2h-2.2V0.2z"/>
</g>
<polygon class="st1" points="87.4,0.2 92.7,0.2 92.7,2.1 89.3,2.1 89.3,3.8 92.7,3.8 92.7,5.6 89.3,5.6 89.3,8.1 92.7,8.1 92.7,9.9 
	87.4,9.9 "/>
<polygon class="st1" points="94.5,0.2 96.3,0.2 100.4,6.6 100.4,0.2 102.3,0.2 102.3,9.9 100.5,9.9 96.3,3.6 96.3,9.9 94.5,9.9 "/>
<g>
	<defs>
		<rect id="SVGID_7_" y="0" width="120.5" height="42.5"/>
	</defs>
	<clipPath id="SVGID_8_">
		<use xlink:href="#SVGID_7_"  style="overflow:visible;"/>
	</clipPath>
	<path class="st4" d="M113.4,1.9l-1.3,1.2c-0.9-0.9-1.9-1.4-3-1.4c-0.9,0-1.7,0.3-2.3,1c-0.6,0.6-1,1.4-1,2.3c0,0.6,0.1,1.2,0.4,1.7
		c0.3,0.5,0.7,0.9,1.2,1.2c0.5,0.3,1.1,0.4,1.7,0.4c0.5,0,1-0.1,1.5-0.3c0.4-0.2,0.9-0.6,1.5-1.1l1.3,1.3c-0.7,0.7-1.4,1.2-2,1.5
		c-0.6,0.3-1.4,0.4-2.2,0.4c-1.5,0-2.7-0.5-3.7-1.4c-1-1-1.4-2.2-1.4-3.7c0-1,0.2-1.8,0.7-2.6c0.4-0.8,1.1-1.4,1.9-1.8
		c0.8-0.5,1.7-0.7,2.6-0.7c0.8,0,1.6,0.2,2.3,0.5C112.3,0.8,112.9,1.3,113.4,1.9"/>
</g>
<polygon class="st1" points="115.1,0.2 120.4,0.2 120.4,2.1 116.9,2.1 116.9,3.8 120.4,3.8 120.4,5.6 116.9,5.6 116.9,8.1 
	120.4,8.1 120.4,9.9 115.1,9.9 "/>
<g>
	<defs>
		<rect id="SVGID_9_" y="0" width="120.5" height="42.5"/>
	</defs>
	<clipPath id="SVGID_10_">
		<use xlink:href="#SVGID_9_"  style="overflow:visible;"/>
	</clipPath>
	<path class="st5" d="M61,16l-1.3,1.2c-0.9-0.9-1.9-1.4-3-1.4c-0.9,0-1.7,0.3-2.3,1c-0.6,0.6-1,1.4-1,2.3c0,0.6,0.1,1.2,0.4,1.7
		c0.3,0.5,0.7,0.9,1.2,1.2c0.5,0.3,1.1,0.4,1.7,0.4c0.5,0,1-0.1,1.5-0.3c0.4-0.2,0.9-0.6,1.5-1.1l1.3,1.3c-0.7,0.7-1.4,1.2-2,1.5
		c-0.6,0.3-1.4,0.4-2.2,0.4c-1.5,0-2.7-0.5-3.7-1.4c-1-1-1.4-2.2-1.4-3.7c0-1,0.2-1.8,0.7-2.6c0.4-0.8,1.1-1.4,1.9-1.8
		c0.8-0.5,1.7-0.7,2.6-0.7c0.8,0,1.6,0.2,2.3,0.5C59.9,14.9,60.5,15.4,61,16"/>
	<path class="st5" d="M67.2,15.9c-0.9,0-1.7,0.3-2.3,0.9c-0.6,0.6-0.9,1.4-0.9,2.4c0,1.1,0.4,1.9,1.2,2.5c0.6,0.5,1.3,0.7,2.1,0.7
		c0.9,0,1.6-0.3,2.2-0.9c0.6-0.6,0.9-1.4,0.9-2.3c0-0.9-0.3-1.7-0.9-2.3C68.9,16.2,68.1,15.9,67.2,15.9 M67.3,14.1
		c1.4,0,2.6,0.5,3.5,1.5c1,1,1.5,2.2,1.5,3.6c0,1.4-0.5,2.6-1.5,3.6c-1,1-2.2,1.5-3.6,1.5c-1.5,0-2.7-0.5-3.6-1.5
		c-1-1-1.4-2.2-1.4-3.6c0-0.9,0.2-1.8,0.7-2.6c0.4-0.8,1.1-1.4,1.9-1.9C65.5,14.3,66.4,14.1,67.3,14.1"/>
</g>
<polygon class="st1" points="74.1,14.3 75.9,14.3 80,20.7 80,14.3 81.9,14.3 81.9,24 80.1,24 75.9,17.7 75.9,24 74.1,24 "/>
<g>
	<defs>
		<rect id="SVGID_11_" y="0" width="120.5" height="42.5"/>
	</defs>
	<clipPath id="SVGID_12_">
		<use xlink:href="#SVGID_11_"  style="overflow:visible;"/>
	</clipPath>
	<path class="st6" d="M93,16l-1.3,1.2c-0.9-0.9-1.9-1.4-3-1.4c-0.9,0-1.7,0.3-2.3,1c-0.6,0.6-1,1.4-1,2.3c0,0.6,0.1,1.2,0.4,1.7
		c0.3,0.5,0.7,0.9,1.2,1.2c0.5,0.3,1.1,0.4,1.7,0.4c0.5,0,1-0.1,1.5-0.3c0.4-0.2,0.9-0.6,1.5-1.1l1.3,1.3c-0.7,0.7-1.4,1.2-2,1.5
		c-0.6,0.3-1.4,0.4-2.2,0.4c-1.5,0-2.7-0.5-3.7-1.4c-1-1-1.4-2.2-1.4-3.7c0-1,0.2-1.8,0.7-2.6c0.4-0.8,1.1-1.4,1.9-1.8
		c0.8-0.5,1.7-0.7,2.6-0.7c0.8,0,1.6,0.2,2.3,0.5C91.9,14.9,92.5,15.4,93,16"/>
</g>
<polygon class="st1" points="94.7,14.3 100,14.3 100,16.1 96.5,16.1 96.5,17.9 100,17.9 100,19.6 96.5,19.6 96.5,22.2 100,22.2 
	100,24 94.7,24 "/>
<g>
	<defs>
		<rect id="SVGID_13_" y="0" width="120.5" height="42.5"/>
	</defs>
	<clipPath id="SVGID_14_">
		<use xlink:href="#SVGID_13_"  style="overflow:visible;"/>
	</clipPath>
	<path class="st7" d="M103.6,18.1h0.6c0.5,0,0.8,0,1-0.1c0.2-0.1,0.3-0.2,0.4-0.3c0.1-0.2,0.2-0.3,0.2-0.6c0-0.4-0.1-0.6-0.4-0.8
		c-0.2-0.1-0.6-0.2-1.2-0.2h-0.5V18.1z M101.7,14.3h2c1.1,0,1.8,0.1,2.3,0.3c0.5,0.2,0.8,0.5,1.1,0.9c0.3,0.4,0.4,1,0.4,1.6
		c0,0.7-0.2,1.2-0.5,1.7c-0.4,0.4-0.8,0.8-1.4,0.9c-0.4,0.1-1,0.2-1.9,0.2V24h-1.8V14.3z"/>
</g>
<polygon class="st1" points="108.4,14.3 113.8,14.3 113.8,16.1 112,16.1 112,24 110.1,24 110.1,16.1 108.4,16.1 "/>
<g>
	<defs>
		<rect id="SVGID_15_" y="0" width="120.5" height="42.5"/>
	</defs>
	<clipPath id="SVGID_16_">
		<use xlink:href="#SVGID_15_"  style="overflow:visible;"/>
	</clipPath>
	<path class="st8" d="M52.9,40.3h0.2c0.2,0,0.3,0,0.4-0.1c0.1-0.1,0.1-0.1,0.1-0.3c0-0.1,0-0.1-0.1-0.2c0-0.1-0.1-0.1-0.1-0.1
		c-0.1,0-0.2,0-0.3,0h-0.2V40.3z M52.3,39h0.7c0.4,0,0.6,0,0.8,0.1c0.2,0.1,0.3,0.2,0.4,0.3c0.1,0.1,0.1,0.3,0.1,0.5
		c0,0.2-0.1,0.4-0.2,0.5c-0.1,0.1-0.3,0.3-0.5,0.3l0.8,1.5h-0.7l-0.7-1.4h-0.1v1.4h-0.6V39z"/>
</g>
<polygon class="st1" points="55.3,39 57.1,39 57.1,39.6 55.9,39.6 55.9,40.2 57.1,40.2 57.1,40.8 55.9,40.8 55.9,41.6 57.1,41.6 
	57.1,42.3 55.3,42.3 "/>
<path class="st1" d="M59.5,39.9L59,41h0.9L59.5,39.9z M59.2,39h0.6l1.3,3.3h-0.6l-0.3-0.7h-1.3l-0.3,0.7h-0.6L59.2,39z"/>
<polygon class="st1" points="62,39 62.6,39 62.6,41.7 63.5,41.7 63.5,42.3 62,42.3 "/>
<polygon class="st1" points="66.2,39 68,39 68,39.6 66.8,39.6 66.8,40.2 68,40.2 68,40.8 66.8,40.8 66.8,41.6 68,41.6 68,42.3 
	66.2,42.3 "/>
<g>
	<defs>
		<rect id="SVGID_17_" y="0" width="120.5" height="42.5"/>
	</defs>
	<clipPath id="SVGID_18_">
		<use xlink:href="#SVGID_17_"  style="overflow:visible;"/>
	</clipPath>
	<path class="st9" d="M70.7,39.4l-0.5,0.4c-0.2-0.2-0.3-0.3-0.5-0.3c-0.1,0-0.1,0-0.2,0.1c-0.1,0-0.1,0.1-0.1,0.1
		c0,0.1,0,0.1,0.1,0.2c0.1,0.1,0.2,0.2,0.5,0.4c0.2,0.2,0.4,0.3,0.4,0.4c0.1,0.1,0.2,0.2,0.3,0.4c0.1,0.1,0.1,0.2,0.1,0.4
		c0,0.3-0.1,0.5-0.3,0.7c-0.2,0.2-0.4,0.3-0.7,0.3c-0.2,0-0.4-0.1-0.6-0.2c-0.2-0.1-0.3-0.3-0.4-0.5l0.5-0.3
		c0.2,0.3,0.3,0.4,0.5,0.4c0.1,0,0.2,0,0.3-0.1c0.1-0.1,0.1-0.1,0.1-0.2c0-0.1,0-0.1-0.1-0.2c-0.1-0.1-0.2-0.2-0.4-0.3
		c-0.4-0.3-0.6-0.5-0.7-0.7c-0.1-0.2-0.2-0.3-0.2-0.5c0-0.2,0.1-0.4,0.3-0.6c0.2-0.2,0.4-0.2,0.6-0.2c0.2,0,0.3,0,0.5,0.1
		C70.4,39.1,70.6,39.2,70.7,39.4"/>
</g>
<polygon class="st1" points="71.5,39 73.3,39 73.3,39.6 72.7,39.6 72.7,42.3 72.1,42.3 72.1,39.6 71.5,39.6 "/>
<path class="st1" d="M75.5,39.9L75.1,41H76L75.5,39.9z M75.2,39h0.6l1.3,3.3h-0.6l-0.3-0.7h-1.3l-0.3,0.7H74L75.2,39z"/>
<polygon class="st1" points="77.7,39 79.5,39 79.5,39.6 79,39.6 79,42.3 78.3,42.3 78.3,39.6 77.7,39.6 "/>
<polygon class="st1" points="80.4,39 82.2,39 82.2,39.6 81.1,39.6 81.1,40.2 82.2,40.2 82.2,40.8 81.1,40.8 81.1,41.6 82.2,41.6 
	82.2,42.3 80.4,42.3 "/>
<g>
	<defs>
		<rect id="SVGID_19_" y="0" width="120.5" height="42.5"/>
	</defs>
	<clipPath id="SVGID_20_">
		<use xlink:href="#SVGID_19_"  style="overflow:visible;"/>
	</clipPath>
	<path class="st10" d="M85.6,39.6v2.1h0.3c0.3,0,0.5,0,0.6-0.1c0.1-0.1,0.2-0.2,0.3-0.3c0.1-0.2,0.1-0.3,0.1-0.6
		c0-0.3-0.1-0.6-0.3-0.8c-0.2-0.2-0.5-0.3-0.8-0.3H85.6z M85,39h0.7c0.5,0,0.8,0.1,1.1,0.2c0.2,0.1,0.4,0.3,0.6,0.6
		c0.2,0.3,0.2,0.6,0.2,0.9c0,0.3,0,0.5-0.1,0.7c-0.1,0.2-0.2,0.4-0.3,0.5c-0.1,0.1-0.3,0.2-0.5,0.3c-0.2,0.1-0.5,0.1-0.9,0.1H85V39z
		"/>
</g>
<polygon class="st1" points="88.7,39 90.4,39 90.4,39.6 89.3,39.6 89.3,40.2 90.4,40.2 90.4,40.8 89.3,40.8 89.3,41.6 90.4,41.6 
	90.4,42.3 88.7,42.3 "/>
<polygon class="st1" points="91.2,39 91.9,39 92.7,41.3 93.5,39 94.2,39 93,42.3 92.4,42.3 "/>
<polygon class="st1" points="95.1,39 96.9,39 96.9,39.6 95.8,39.6 95.8,40.2 96.9,40.2 96.9,40.8 95.8,40.8 95.8,41.6 96.9,41.6 
	96.9,42.3 95.1,42.3 "/>
<polygon class="st1" points="98,39 98.6,39 98.6,41.7 99.5,41.7 99.5,42.3 98,42.3 "/>
<g>
	<defs>
		<rect id="SVGID_21_" y="0" width="120.5" height="42.5"/>
	</defs>
	<clipPath id="SVGID_22_">
		<use xlink:href="#SVGID_21_"  style="overflow:visible;"/>
	</clipPath>
	<path class="st11" d="M102,39.5c-0.3,0-0.6,0.1-0.8,0.3c-0.2,0.2-0.3,0.5-0.3,0.8c0,0.4,0.1,0.6,0.4,0.9c0.2,0.2,0.4,0.2,0.7,0.2
		c0.3,0,0.5-0.1,0.8-0.3c0.2-0.2,0.3-0.5,0.3-0.8c0-0.3-0.1-0.6-0.3-0.8C102.5,39.6,102.3,39.5,102,39.5 M102,38.9
		c0.5,0,0.9,0.2,1.2,0.5c0.3,0.3,0.5,0.7,0.5,1.2c0,0.5-0.2,0.9-0.5,1.2c-0.3,0.3-0.7,0.5-1.2,0.5c-0.5,0-0.9-0.2-1.2-0.5
		c-0.3-0.3-0.5-0.7-0.5-1.2c0-0.3,0.1-0.6,0.2-0.9c0.2-0.3,0.4-0.5,0.6-0.6C101.4,39,101.7,38.9,102,38.9"/>
	<path class="st11" d="M105.4,40.3h0.2c0.2,0,0.3,0,0.3,0c0.1,0,0.1-0.1,0.1-0.1c0-0.1,0.1-0.1,0.1-0.2c0-0.1,0-0.2-0.1-0.3
		c-0.1,0-0.2-0.1-0.4-0.1h-0.2V40.3z M104.7,39h0.7c0.4,0,0.6,0,0.8,0.1c0.2,0.1,0.3,0.2,0.4,0.3c0.1,0.1,0.1,0.3,0.1,0.5
		c0,0.2-0.1,0.4-0.2,0.6c-0.1,0.2-0.3,0.3-0.5,0.3c-0.1,0-0.3,0.1-0.7,0.1v1.4h-0.6V39z"/>
</g>
<polygon class="st1" points="108.1,39 108.7,39 109.4,41.3 110.2,39 110.8,39 111.4,42.3 110.8,42.3 110.4,40.2 109.7,42.3 
	109.2,42.3 108.5,40.2 108.1,42.3 107.5,42.3 "/>
<polygon class="st1" points="112.3,39 114.1,39 114.1,39.6 112.9,39.6 112.9,40.2 114.1,40.2 114.1,40.8 112.9,40.8 112.9,41.6 
	114.1,41.6 114.1,42.3 112.3,42.3 "/>
<polygon class="st1" points="115.1,39 115.7,39 117.2,41.1 117.2,39 117.8,39 117.8,42.3 117.2,42.3 115.8,40.1 115.8,42.3 
	115.1,42.3 "/>
<polygon class="st1" points="118.7,39 120.5,39 120.5,39.6 119.9,39.6 119.9,42.3 119.2,42.3 119.2,39.6 118.7,39.6 "/>
<g>
	<defs>
		<path id="SVGID_23_" d="M31.5,14.4c-5.6,0-10.2,4.6-10.2,10.2c0,5.3,4,9.6,9.2,10.1h11.8v-3.6h-7.2c-3.6,0-6.5-2.9-6.5-6.5
			c0-3.6,2.9-6.5,6.5-6.5h7.2v-3.7H31.5z"/>
	</defs>
	<clipPath id="SVGID_24_">
		<use xlink:href="#SVGID_23_"  style="overflow:visible;"/>
	</clipPath>
	
		<linearGradient id="SVGID_25_" gradientUnits="userSpaceOnUse" x1="2.074842e-02" y1="41.9318" x2="1.0205" y2="41.9318" gradientTransform="matrix(19.33 0 0 -19.33 22.56 835.0552)">
		<stop  offset="0" style="stop-color:#BBB28D"/>
		<stop  offset="7.975770e-02" style="stop-color:#BBB28D"/>
		<stop  offset="0.2822" style="stop-color:#BAB08A"/>
		<stop  offset="0.6354" style="stop-color:#AB9E66"/>
		<stop  offset="1" style="stop-color:#9F915E"/>
	</linearGradient>
	<rect x="21.3" y="14.4" class="st12" width="21" height="20.3"/>
</g>
<g>
	<defs>
		<path id="SVGID_26_" d="M30.8,14.4c-5.3,0.3-9.5,4.8-9.5,10.1c0,5.6,4.6,10.2,10.2,10.2h10.8V31h-7.2c-3.6,0-6.5-2.9-6.5-6.5
			c0-3.6,2.9-6.5,6.5-6.5h7.2v-3.6H30.8z"/>
	</defs>
	<clipPath id="SVGID_27_">
		<use xlink:href="#SVGID_26_"  style="overflow:visible;"/>
	</clipPath>
	
		<linearGradient id="SVGID_28_" gradientUnits="userSpaceOnUse" x1="2.074842e-02" y1="41.9318" x2="1.0205" y2="41.9318" gradientTransform="matrix(19.33 0 0 -19.33 22.56 835.0552)">
		<stop  offset="0" style="stop-color:#BBB28D"/>
		<stop  offset="7.975770e-02" style="stop-color:#BBB28D"/>
		<stop  offset="0.2822" style="stop-color:#BAB08A"/>
		<stop  offset="0.6354" style="stop-color:#AB9E66"/>
		<stop  offset="1" style="stop-color:#9F915E"/>
	</linearGradient>
	<rect x="21.3" y="14.4" class="st13" width="21" height="20.3"/>
</g>
<g>
	<defs>
		<path id="SVGID_29_" d="M0,0.2v3.7h7.5c3.6,0,6.5,2.9,6.5,6.5c0,3.6-2.9,6.5-6.5,6.5H0v3.7c0.7,0,5.7,0.6,8.8,5.9
			c1.9,3.3,2.2,5.5,4.1,9.5c3.4,6.1,8.6,6.5,15.7,6.5h0.7c0.6,0,1.3,0,1.9,0h11V39h-7.1c-5.1,0-7.3,0-9.6-0.8
			c-6.4-2-6.9-7.6-9.3-12.2c-1.1-2.1-1.7-4.2-4.7-5.4c5.4-0.3,9.7-4.7,9.7-10.1c0-5.6-4.6-10.2-10.2-10.2H0z"/>
	</defs>
	<clipPath id="SVGID_30_">
		<use xlink:href="#SVGID_29_"  style="overflow:visible;"/>
	</clipPath>
	
		<linearGradient id="SVGID_31_" gradientUnits="userSpaceOnUse" x1="-2.284887e-03" y1="43.0195" x2="0.9977" y2="43.0195" gradientTransform="matrix(42.2778 0 0 -42.2778 9.660000e-02 1840.1488)">
		<stop  offset="0" style="stop-color:#BBB28D"/>
		<stop  offset="7.975770e-02" style="stop-color:#BBB28D"/>
		<stop  offset="0.2822" style="stop-color:#BAB08A"/>
		<stop  offset="0.6354" style="stop-color:#AB9E66"/>
		<stop  offset="1" style="stop-color:#9F915E"/>
	</linearGradient>
	<rect y="0.2" class="st14" width="42.3" height="42.3"/>
</g>
</svg>
